<?xml version="1.0" encoding="utf-8"?>
<!-- Generator: Adobe Illustrator 16.0.0, SVG Export Plug-In . SVG Version: 6.00 Build 0)  -->
<!DOCTYPE svg PUBLIC "-//W3C//DTD SVG 1.1//EN" "http://www.w3.org/Graphics/SVG/1.1/DTD/svg11.dtd">
<svg version="1.1" id="Layer_1" xmlns="http://www.w3.org/2000/svg" xmlns:xlink="http://www.w3.org/1999/xlink" x="0px" y="0px"
	 width="120px" height="120px" fill="#fff" viewBox="0 0 50 50" enable-background="new 0 0 50 50" xml:space="preserve">
<g>
	<polygon points="28.769,25.287 33.639,14.025 29.234,9.622 25.73,18.382 	"/>
	<polygon points="26.077,14.971 28.217,9.622 21.8,9.622 24.152,14.971 	"/>
	<path d="M23.925,26.559l-0.011,0.053c0,0.583,0.46,1.05,1.034,1.083c-0.411,0.02-0.777,0.27-0.983,0.688l-1.062,2.155l0.199,0.055
		l0.139-0.04c0.101-0.023,0.191-0.044,0.294-0.049c0.134-0.04,0.27-0.035,0.396,0.018l0.038,0.018
		c0.08-0.085,0.174-0.173,0.269-0.249c0.1-0.079,0.253-0.191,0.386-0.288l0.197-0.146l0.025-0.083
		c0.032-0.103,0.116-0.304,0.152-0.391l-0.098-0.27l0.266-0.16c0.039-0.025,0.23-0.128,0.444,0.034l0.153-0.093
		c0.071-0.049,0.296-0.18,0.501-0.036l-0.235-0.477c-0.204-0.415-0.564-0.663-0.971-0.687c0.579-0.028,1.044-0.498,1.044-1.084
		l-0.011-0.053h2.127L20.766,9.622l-4.404,4.404l6.098,12.534H23.925z"/>
	<path d="M30.582,31.691l-3.017-0.438l-0.183-0.129l-0.855-1.733l-0.008,0.112l0.031,0.172c0.02,0.195-0.109,0.317-0.152,0.357
		l-0.128,0.105l0.09,0.168l-0.216,0.213l-0.152,0.112L25.91,30.69l-0.107,0.014l-0.118,0.042l-0.17,0.078l-0.167,0.092l0.48,0.975
		c0.266,0.536,0.888,0.989,1.479,1.075l1.86,0.271l-1.346,1.311c-0.429,0.417-0.666,1.148-0.564,1.739l0.097,0.564
		c0.301,0.181,0.63,0.415,0.955,0.652l0.178,0.128c0.216,0.151,0.482,0.157,0.622,0.148l0.163,0.014l-0.307-1.79l0.065-0.215
		l2.188-2.133c0.349-0.34,0.478-0.787,0.345-1.197C31.431,32.048,31.063,31.761,30.582,31.691z"/>
	<path d="M20.88,35.391l0.011-0.032l0.008-0.151l-0.067-0.21c-0.119-0.254-0.113-0.619-0.068-0.877
		c0.03-0.169,0.141-0.458,0.248-0.704l-0.185-0.18l0.286-0.042l0.074-0.145c0.159-0.27,0.636-0.589,0.709-0.627l0.178-0.173
		c0.044-0.09,0.116-0.327,0.151-0.528c-0.046-0.105-0.073-0.143-0.097-0.185l-0.065-0.23l-2.65,0.385
		c-0.481,0.07-0.849,0.357-0.982,0.767c-0.133,0.41-0.004,0.857,0.345,1.197l2.026,1.975C20.822,35.525,20.855,35.438,20.88,35.391z
		"/>
	<path d="M29.042,39.068c-0.08-0.014-0.171-0.031-0.269-0.055c-0.286-0.069-0.471-0.194-0.751-0.383
		c-0.18-0.122-0.565-0.216-0.847-0.285l-0.223-0.055c-0.177-0.046-0.359-0.116-0.543-0.187c-0.181-0.07-0.36-0.141-0.536-0.181
		c-0.295-0.066-0.529-0.075-0.758-0.083c-0.305-0.011-0.604-0.141-0.895-0.266c-0.121-0.052-0.236-0.103-0.33-0.135l-0.085-0.029
		l-0.146,0.076l0.037,0.034l0.087,0.078c0.114,0.061,0.207,0.086,0.314,0.115c0.17,0.046,0.257,0.097,0.359,0.154l0.064,0.037
		c0.239,0.133,0.286,0.361,0.225,0.529c-0.079,0.213-0.314,0.326-0.572,0.272c-0.081-0.016-0.372,0.006-0.566,0.021l-0.145,0.011
		c-0.249,0.019-0.473-0.002-0.729-0.026l-0.308-0.027c-0.201-0.015-0.414,0.013-0.619,0.039c-0.186,0.024-0.356,0.041-0.496,0.04
		c-0.154-0.005-0.325,0.011-0.496,0.025c-0.094,0.008-0.18,0.011-0.269,0.017l-0.034,0.203c-0.066,0.382,0.02,0.736,0.24,0.997
		c0.329,0.391,0.913,0.487,1.429,0.216l2.699-1.418l0.115-0.015l0.108,0.011l2.706,1.422c0.2,0.106,0.405,0.159,0.609,0.159
		c0.319,0,0.618-0.137,0.819-0.375c0.189-0.223,0.272-0.518,0.253-0.837c-0.082-0.003-0.172-0.013-0.28-0.061L29.042,39.068z"/>
	<path d="M29.962,38.594c0,0-0.081-0.271-0.289-0.352c-0.208-0.081-0.352-0.125-0.539-0.112c-0.187,0.012-0.544,0.003-0.849-0.212
		c-0.306-0.214-1.298-0.983-1.728-1.045c-0.43-0.062-0.821-0.078-1.166-0.252c-0.347-0.174-0.925-0.517-1.283-0.787l0.022-0.087
		l-0.071-0.031L24,35.598c-0.028-0.025-0.353-0.277-0.495-0.368c-0.143-0.09-0.342-0.146-0.433-0.205
		c-0.09-0.059-0.148-0.091-0.248-0.152c-0.1-0.062-0.162-0.119-0.218-0.156l-0.072-0.078l0.037-0.215l0.041-0.131l0.034-0.124
		c0.007-0.025,0.096-0.097,0.146-0.234c0.05-0.137,0.147-0.283,0.156-0.302c0.01-0.019,0.258-0.286,0.345-0.423v0.006
		c0,0,0.25-0.171,0.386-0.417l0.054,0.066l0.022,0.031l0.043-0.025l0.077,0.028l0.071,0.069l0.081-0.013l0.061-0.019l0.046-0.049
		l0.085-0.053l0.015-0.118l-0.122-0.171l0.009-0.037c0.022-0.01,0.132-0.075,0.051-0.187l-0.019-0.049v-0.035L24.125,32.2
		l-0.051-0.013c0,0,0.078-0.065,0.182-0.006l-0.131-0.04l0.186,0.006l-0.186-0.034l0.165-0.006
		c-0.098-0.055-0.172-0.027-0.172-0.027l0.109-0.169l0.019-0.276l0.162-0.249l0.168-0.162c0.056-0.062,0.288-0.317,0.42-0.445
		c0.13-0.127,0.137-0.155,0.22-0.184l0.144-0.111l0.141-0.035l0.165-0.068l0.121-0.032l0.128-0.093l-0.06-0.053l-0.156,0.041
		l-0.005-0.05l0.108-0.046l0.109-0.103l-0.034-0.072l0.134-0.081l0.136-0.103l0.035-0.103l-0.131,0.05l-0.056,0.047l-0.066-0.038
		l0.107-0.118l0.14-0.193l-0.068-0.034l-0.082,0.09l-0.098,0.078l0.139-0.159l0.124-0.181l-0.218,0.134l-0.195,0.159l-0.028-0.019
		l0.162-0.137l0.093-0.094l0.065-0.124l-0.189,0.081l-0.153,0.128l-0.146,0.093l-0.122,0.112c0,0,0.063-0.165-0.023-0.258
		c-0.088-0.094-0.11-0.041-0.091,0.012l-0.009,0.174c-0.02,0.047-0.12,0.28-0.156,0.395c-0.037,0.115-0.065,0.177-0.103,0.218
		c-0.037,0.04-0.434,0.314-0.62,0.464c-0.186,0.149-0.346,0.332-0.38,0.398l-0.097,0.093c0,0-0.12-0.318-0.382-0.203
		c-0.105-0.002-0.193,0.022-0.262,0.038l-0.082,0.03l-0.006-0.009l0.002,0.01l0.001,0l-0.067,0.025l-0.133,0.013l-0.231-0.072
		l-0.057,0.125l-0.11,0.081l-0.088,0.046l-0.087,0.034c-0.06,0.006-0.1,0.084-0.04,0.193c0.059,0.109,0.177,0.168,0.133,0.415
		c-0.043,0.246-0.164,0.681-0.268,0.737c-0.103,0.056-0.167,0.174-0.245,0.215s-0.467,0.321-0.57,0.495
		c-0.103,0.174-0.342,0.737-0.379,0.952c-0.037,0.215-0.037,0.502,0.041,0.667c0.076,0.165,0.111,0.373,0.108,0.388l-0.013,0.091
		l-0.028,0.168c-0.018,0.056-0.081,0.133-0.087,0.264c-0.007,0.131-0.047,0.187-0.053,0.262c-0.006,0.074-0.034,0.239-0.097,0.339
		c-0.062,0.1-0.146,0.221-0.212,0.305s-0.034,0.131-0.13,0.221c-0.097,0.09-0.221,0.24-0.265,0.283l-0.044,0.112
		c-0.073,0.093-0.457,0.467-0.417,0.703c0.041,0.237,0.156,0.483,0.448,0.479c0.292-0.003,0.666-0.062,0.961-0.053
		c0.296,0.009,0.717-0.108,1.13-0.078c0.414,0.031,0.679,0.075,0.986,0.053c0.308-0.022,0.654-0.057,0.807-0.025
		c0.152,0.031,0.246-0.072,0.105-0.149c-0.14-0.078-0.195-0.119-0.319-0.152c-0.126-0.034-0.253-0.066-0.415-0.153
		c-0.162-0.087-0.285-0.333-0.502-0.318c-0.214,0.016-0.235,0.281-0.428,0.255c-0.193-0.025-1.04-0.165-1.04-0.18l-0.003-0.025
		c0,0,0.461-0.134,0.759-0.346c0.298-0.211,0.656-0.507,0.707-0.513c0.233,0.096,0.598,0.224,0.896,0.327
		c0.299,0.103,0.797,0.371,1.056,0.379c0.258,0.01,0.532,0.013,0.889,0.093c0.358,0.081,0.739,0.277,1.093,0.371
		c0.354,0.093,0.891,0.196,1.176,0.389c0.287,0.194,0.421,0.281,0.639,0.333s0.393,0.065,0.497,0.112
		c0.106,0.047,0.188,0.031,0.312,0.034c0.125,0.003,0.341,0.022,0.404-0.049L29.962,38.594z"/>
</g>
</svg>
